<svg width="99" height="32" viewBox="0 0 99 32" fill="none" xmlns="http://www.w3.org/2000/svg">
<path d="M9.44921 16.3052L4.16112 21.7111V29.297H0V0H4.16112V16.3923L19.9387 0H24.7067L12.31 13.1662L25.5736 29.297H20.7189L9.44921 16.3052Z" fill="#EBEBEB"/>
<path d="M55.915 26.9428L57.5622 23.8038C59.4693 25.1117 62.4168 26.0708 65.2776 26.0708C69.0052 26.0708 70.479 24.9373 70.479 23.0191C70.479 18.0491 56.5219 22.3215 56.5219 13.515C56.5219 9.50411 60.0762 6.88831 65.711 6.88831C68.5718 6.88831 71.866 7.67305 73.7732 8.89375L72.0394 12.0327C70.0455 10.7248 67.8783 10.2888 65.711 10.2888C62.2434 10.2888 60.5096 11.5967 60.5096 13.3406C60.5096 18.5722 74.4667 14.2997 74.4667 22.9319C74.4667 26.9428 70.8257 29.4714 64.9308 29.4714C61.3765 29.5586 57.7355 28.4251 55.915 26.9428Z" fill="#EBEBEB"/>
<path d="M99.0001 15.8691V29.2969H95.1857V26.3323C93.8854 28.3378 91.3713 29.4713 87.9037 29.4713C82.8757 29.4713 79.7549 26.7683 79.7549 22.9318C79.7549 19.3569 82.0088 16.4795 88.5973 16.4795H94.9256V15.6947C94.9256 12.2942 92.9318 10.376 89.0307 10.376C86.43 10.376 83.7426 11.3351 82.0088 12.7302L80.3617 9.67841C82.6157 7.84735 85.9099 6.80103 89.4642 6.80103C95.6192 6.88822 99.0001 9.85279 99.0001 15.8691ZM95.0123 22.4958V19.3569H88.8573C84.8696 19.3569 83.7426 20.9263 83.7426 22.7574C83.7426 24.9372 85.5631 26.3323 88.5973 26.3323C91.6314 26.4195 94.0587 25.1116 95.0123 22.4958Z" fill="#EBEBEB"/>
<path d="M43.085 23.4552V29.3843L45.599 27.902V21.9729L43.085 23.4552Z" fill="#EBEBEB"/>
<path d="M50.0202 16.218L39.704 10.2017L33.9825 6.88831L28.3477 16.7412L28.4343 25.9836L38.6638 32L39.704 31.3896V22.6703L44.2986 14.5613L48.9799 17.2643V25.9836L50.0202 25.3733V16.218Z" fill="#EBEBEB"/>
</svg>
