<svg width="99" height="33" viewBox="0 0 99 33" fill="none" xmlns="http://www.w3.org/2000/svg">
<path d="M9.44921 16.8052L4.16112 22.2112V29.797H0V0.5H4.16112V16.8924L19.9387 0.5H24.7067L12.31 13.6662L25.5736 29.797H20.7189L9.44921 16.8052Z" fill="#222222"/>
<path d="M55.9151 27.4428L57.5622 24.3038C59.4693 25.6117 62.4168 26.5708 65.2776 26.5708C69.0053 26.5708 70.479 25.4373 70.479 23.5191C70.479 18.549 56.5219 22.8215 56.5219 14.015C56.5219 10.0041 60.0762 7.38828 65.711 7.38828C68.5718 7.38828 71.866 8.17303 73.7732 9.39373L72.0394 12.5327C70.0455 11.2248 67.8783 10.7888 65.711 10.7888C62.2434 10.7888 60.5096 12.0967 60.5096 13.8406C60.5096 19.0722 74.4667 14.7997 74.4667 23.4319C74.4667 27.4428 70.8257 29.9714 64.9308 29.9714C61.3765 30.0586 57.7355 28.9251 55.9151 27.4428Z" fill="#222222"/>
<path d="M99 16.3692V29.797H95.1856V26.8324C93.8853 28.8379 91.3713 29.9714 87.9037 29.9714C82.8756 29.9714 79.7548 27.2684 79.7548 23.4319C79.7548 19.8569 82.0088 16.9796 88.5972 16.9796H94.9256V16.1948C94.9256 12.7943 92.9317 10.876 89.0306 10.876C86.4299 10.876 83.7426 11.8352 82.0088 13.2302L80.3616 10.1785C82.6156 8.34741 85.9098 7.30109 89.4641 7.30109C95.6191 7.38828 99 10.3529 99 16.3692ZM95.0123 22.9959V19.857H88.8573C84.8695 19.857 83.7426 21.4264 83.7426 23.2575C83.7426 25.4373 85.563 26.8324 88.5972 26.8324C91.6313 26.9196 94.0587 25.6117 95.0123 22.9959Z" fill="#222222"/>
<path d="M43.0849 23.955V29.8842L45.599 28.4019V22.4728L43.0849 23.955Z" fill="#222222"/>
<path d="M50.0201 16.718L39.704 10.7016L33.9825 7.38828L28.3476 17.2411L28.4343 26.4837L38.6638 32.5L39.704 31.8896V23.1703L44.2986 15.0613L48.9799 17.7643V26.4837L50.0201 25.8733V16.718Z" fill="#222222"/>
</svg>
